<svg width="232" height="63" viewBox="0 0 232 63" fill="none" xmlns="http://www.w3.org/2000/svg">
<g clip-path="url(#clip0_179_73)">
<path d="M45.6 2H11.4C5.10395 2 0 7.10395 0 13.4V47.6C0 53.896 5.10395 59 11.4 59H45.6C51.896 59 57 53.896 57 47.6V13.4C57 7.10395 51.896 2 45.6 2Z" fill="#FFD166"/>
</g>
<path d="M16.1157 15.8737C15.7721 15.5683 15.9882 15 16.4479 15H47.5477C47.8968 15 48.1384 15.3487 48.0158 15.6756L45.6295 22.0392C45.5563 22.2344 45.3697 22.3636 45.1613 22.3636H23.607C23.4845 22.3636 23.3663 22.3187 23.2748 22.2373L16.1157 15.8737Z" fill="#0A1B4D"/>
<path d="M13.6352 27.6882C13.297 27.3807 13.5145 26.8182 13.9715 26.8182H38.9623C39.3099 26.8182 39.5514 27.164 39.4318 27.4903L37.0984 33.854C37.0262 34.0509 36.8388 34.1818 36.629 34.1818H20.9715C20.8471 34.1818 20.7272 34.1355 20.6352 34.0518L13.6352 27.6882Z" fill="#0A1B4D"/>
<path d="M10.0446 39.4639C9.76381 39.1402 9.99378 38.6364 10.4223 38.6364H41.7418C42.0909 38.6364 42.3325 38.9851 42.2099 39.3119L39.8236 45.6756C39.7504 45.8707 39.5638 46 39.3554 46H15.9408C15.7958 46 15.658 45.9371 15.563 45.8276L10.0446 39.4639Z" fill="#0A1B4D"/>
<path d="M76.2869 50V12.1818H101.77V18.7741H84.2827V27.7855H100.459V34.3778H84.2827V43.4077H101.844V50H76.2869ZM116.64 50L105.819 12.1818H114.553L120.813 38.4588H121.127L128.033 12.1818H135.512L142.4 38.5142H142.732L148.992 12.1818H157.726L146.905 50H139.113L131.911 25.2741H131.615L124.432 50H116.64ZM162.006 50V12.1818H176.926C179.782 12.1818 182.22 12.6927 184.239 13.7145C186.27 14.724 187.815 16.1581 188.874 18.017C189.945 19.8636 190.48 22.0365 190.48 24.5355C190.48 27.0469 189.938 29.2074 188.855 31.017C187.772 32.8144 186.202 34.1932 184.146 35.1534C182.103 36.1136 179.628 36.5938 176.723 36.5938H166.733V30.1676H175.43C176.957 30.1676 178.225 29.9583 179.234 29.5398C180.244 29.1212 180.995 28.4934 181.487 27.6562C181.992 26.8191 182.244 25.7789 182.244 24.5355C182.244 23.2798 181.992 22.2211 181.487 21.3594C180.995 20.4976 180.238 19.8452 179.216 19.402C178.206 18.9465 176.932 18.7188 175.393 18.7188H170.001V50H162.006ZM182.429 32.7898L191.828 50H183.001L173.805 32.7898H182.429ZM202.649 50H194.081L207.136 12.1818H217.44L230.477 50H221.909L212.436 20.8239H212.141L202.649 50ZM202.114 35.1349H222.352V41.3764H202.114V35.1349Z" fill="#FFD166"/>
<defs>
<clipPath id="clip0_179_73">
<rect width="57" height="57" fill="white" transform="translate(0 2)"/>
</clipPath>
</defs>
</svg>
