<svg width="57" height="57" viewBox="0 0 57 57" fill="none" xmlns="http://www.w3.org/2000/svg">
<g clip-path="url(#clip0_188_74)">
<path d="M45.6 0H11.4C5.10395 0 0 5.10395 0 11.4V45.6C0 51.896 5.10395 57 11.4 57H45.6C51.896 57 57 51.896 57 45.6V11.4C57 5.10395 51.896 0 45.6 0Z" fill="#FFD166"/>
</g>
<path d="M16.1157 13.8737C15.7721 13.5683 15.9882 13 16.4479 13H47.5477C47.8968 13 48.1384 13.3487 48.0158 13.6756L45.6295 20.0392C45.5563 20.2344 45.3697 20.3636 45.1613 20.3636H23.607C23.4845 20.3636 23.3663 20.3187 23.2748 20.2373L16.1157 13.8737Z" fill="#0A1B4D"/>
<path d="M13.6352 25.6882C13.297 25.3807 13.5145 24.8182 13.9715 24.8182H38.9623C39.3099 24.8182 39.5514 25.164 39.4318 25.4903L37.0984 31.854C37.0262 32.0509 36.8388 32.1818 36.629 32.1818H20.9715C20.8471 32.1818 20.7272 32.1355 20.6352 32.0518L13.6352 25.6882Z" fill="#0A1B4D"/>
<path d="M10.0446 37.4639C9.76381 37.1402 9.99378 36.6364 10.4223 36.6364H41.7418C42.0909 36.6364 42.3325 36.9851 42.2099 37.3119L39.8236 43.6756C39.7504 43.8707 39.5638 44 39.3554 44H15.9408C15.7958 44 15.658 43.9371 15.563 43.8276L10.0446 37.4639Z" fill="#0A1B4D"/>
<defs>
<clipPath id="clip0_188_74">
<rect width="57" height="57" fill="white"/>
</clipPath>
</defs>
</svg>
